<?xml version="1.0" encoding="UTF-8" standalone="no"?>
<!-- Uploaded to: SVG Repo, www.svgrepo.com, Generator: SVG Repo Mixer Tools -->

<svg
   width="800px"
   height="800px"
   viewBox="0 0 24 24"
   fill="none"
   version="1.1"
   id="svg4"
   xmlns="http://www.w3.org/2000/svg"
   xmlns:svg="http://www.w3.org/2000/svg">
  <defs
     id="defs4" />
  <path
     id="path1"
     d="M 9.232207 3.9267773 C 9.2275216 3.9268686 9.2228145 3.9272209 9.2181445 3.9277734 C 9.1994645 3.9299834 9.18141 3.93581 9.165 3.945 C 9.14858 3.9542 9.1341109 3.9665481 9.1224609 3.9813281 C 9.1108109 3.9960981 9.1021998 4.0130328 9.0970898 4.0311328 C 9.0919898 4.0492428 9.0905339 4.0681755 9.0927539 4.0868555 C 9.0949639 4.1055355 9.1007805 4.12359 9.1099805 4.14 L 9.6400195 5.1400195 L 9.8200195 5.4500391 L 9.66 5.5300195 L 9.51 5.6200195 C 8.62277 6.1530695 7.9719895 7.0041491 7.6900195 8.0000391 C 7.6119695 8.2598991 7.56825 8.5288295 7.56 8.8000195 L 16.44 8.8000195 C 16.4302 8.5296995 16.3899 8.2613491 16.32 8.0000391 C 16.0257 7.0126491 15.373 6.17087 14.49 5.64 L 14.34 5.55 L 14.17998 5.4700195 L 14.35998 5.16 L 14.89002 4.1600391 C 14.90002 4.1315491 14.900602 4.1005783 14.891602 4.0717383 C 14.882602 4.0429083 14.86448 4.0177295 14.83998 4.0000195 L 14.77002 4.0000195 C 14.74452 4.0011695 14.719512 4.0080558 14.697012 4.0201758 C 14.674512 4.0322958 14.655 4.0493491 14.64 4.0700391 L 14.1 5.0000391 L 13.93002 5.31 L 13.77 5.2400391 L 13.60002 5.1800391 C 12.56372 4.8203791 11.43628 4.8203791 10.39998 5.1800391 L 10.24002 5.2400391 L 10.06998 5.31 L 9.9 5.0000391 L 9.36 4.0000195 C 9.3508 3.9836095 9.3384519 3.9691791 9.3236719 3.9575391 C 9.3089019 3.9458891 9.2919772 3.937268 9.2738672 3.932168 C 9.2602847 3.9283355 9.2462634 3.9265036 9.232207 3.9267773 z M 9.9805078 6.6704883 C 10.039294 6.6676252 10.0983 6.6777858 10.153125 6.7004883 C 10.226225 6.7307683 10.288598 6.782013 10.332598 6.847793 C 10.376498 6.913573 10.39998 6.9909291 10.39998 7.0700391 C 10.39998 7.1761291 10.357893 7.2778511 10.282793 7.3528711 C 10.207793 7.4278811 10.10612 7.47 10.00002 7.47 C 9.9209095 7.47 9.8435534 7.4465672 9.7777734 7.4026172 C 9.7119934 7.3586672 9.6607387 7.2961759 9.6304688 7.2230859 C 9.6001888 7.1499959 9.5922458 7.0695822 9.6076758 6.9919922 C 9.6231158 6.9143922 9.6611889 6.843147 9.7171289 6.787207 C 9.7730789 6.731267 9.8443827 6.6931253 9.9219727 6.6776953 C 9.9413702 6.6738378 9.9609123 6.6714427 9.9805078 6.6704883 z M 13.980586 6.6704883 C 14.039362 6.6676252 14.098261 6.6777858 14.153086 6.7004883 C 14.226186 6.7307683 14.288617 6.782013 14.332617 6.847793 C 14.376517 6.913573 14.4 6.9909291 14.4 7.0700391 C 14.4 7.1761291 14.357913 7.2778511 14.282813 7.3528711 C 14.207812 7.4278811 14.10608 7.47 13.99998 7.47 C 13.92088 7.47 13.843493 7.4465672 13.777793 7.4026172 C 13.711993 7.3586672 13.660671 7.2961759 13.630371 7.2230859 C 13.600171 7.1499959 13.592195 7.0695822 13.607695 6.9919922 C 13.623095 6.9143922 13.661207 6.843147 13.717207 6.787207 C 13.773107 6.731267 13.844392 6.6931253 13.921992 6.6776953 C 13.941392 6.6738378 13.960994 6.6714427 13.980586 6.6704883 z M 5.94 9.33 C 5.6907 9.33 5.4515925 9.429042 5.2753125 9.605332 C 5.0990325 9.781612 4.9999805 10.02072 4.9999805 10.27002 L 4.9999805 14.53002 C 4.9999805 14.77932 5.0990325 15.018407 5.2753125 15.194707 C 5.4515925 15.371007 5.6907 15.46998 5.94 15.46998 C 6.1893 15.46998 6.4284075 15.371007 6.6046875 15.194707 C 6.7809675 15.018407 6.8800195 14.77932 6.8800195 14.53002 L 6.8800195 10.27002 C 6.8800195 10.02072 6.7809675 9.781612 6.6046875 9.605332 C 6.4284075 9.429042 6.1893 9.33 5.94 9.33 z M 7.56 9.33 L 7.56 15.73002 C 7.56 15.87052 7.5876653 16.009673 7.6414453 16.139473 C 7.6952153 16.269273 7.774058 16.387282 7.873418 16.486582 C 7.972778 16.585982 8.0907073 16.664813 8.2205273 16.718613 C 8.3503373 16.772313 8.4894605 16.8 8.6299805 16.8 L 9.3100195 16.8 L 9.3100195 19.06998 C 9.3100195 19.31928 9.409003 19.558427 9.585293 19.734727 C 9.761573 19.911027 10.00068 20.01 10.24998 20.01 C 10.49928 20.01 10.738427 19.911027 10.914727 19.734727 C 11.091027 19.558427 11.19 19.31928 11.19 19.06998 L 11.19 16.8 L 12.81 16.8 L 12.81 19.06998 C 12.81 19.31928 12.908973 19.558427 13.085273 19.734727 C 13.261573 19.911027 13.50072 20.01 13.75002 20.01 C 13.99932 20.01 14.238407 19.911027 14.414707 19.734727 C 14.591007 19.558427 14.68998 19.31928 14.68998 19.06998 L 14.68998 16.8 L 15.37002 16.8 C 15.65382 16.8 15.925882 16.687282 16.126582 16.486582 C 16.327282 16.285982 16.44 16.01382 16.44 15.73002 L 16.44 9.33 L 7.56 9.33 z M 18.06 9.33 C 17.8107 9.33 17.571612 9.429042 17.395312 9.605332 C 17.219012 9.781612 17.11998 10.02072 17.11998 10.27002 L 17.11998 14.53002 C 17.11998 14.77932 17.219013 15.018407 17.395312 15.194707 C 17.571613 15.371007 17.8107 15.46998 18.06 15.46998 C 18.3093 15.46998 18.548388 15.371007 18.724687 15.194707 C 18.900988 15.018407 19.00002 14.77932 19.00002 14.53002 L 19.00002 10.27002 C 19.00002 10.02072 18.900988 9.781612 18.724687 9.605332 C 18.548388 9.429042 18.3093 9.33 18.06 9.33 z "
     style="fill:#000000;fill-opacity:1;stroke:none" />
</svg>
