<?xml version="1.0" encoding="UTF-8" standalone="no"?>
<svg
   width="24"
   height="24"
   viewBox="0 0 24 24"
   fill="none"
   stroke="currentColor"
   stroke-width="2"
   stroke-linecap="round"
   stroke-linejoin="round"
   version="1.1"
   id="svg9"
   xmlns="http://www.w3.org/2000/svg"
   xmlns:svg="http://www.w3.org/2000/svg">
  <defs
     id="defs9" />
  <path
     id="rect1"
     style="baseline-shift:baseline;display:inline;overflow:visible;vector-effect:none;fill:#000000;stroke:none;stroke-linecap:butt;stroke-linejoin:miter;enable-background:accumulate;stop-color:#000000;stop-opacity:1;opacity:1"
     d="M 9 0 A 1 1 0 0 0 8 1 L 8 3 L 6 3 C 4.3552972 3 3 4.3552972 3 6 L 3 8 L 1 8 A 1 1 0 0 0 0 9 A 1 1 0 0 0 1 10 L 3 10 L 3 13 L 1 13 A 1 1 0 0 0 0 14 A 1 1 0 0 0 1 15 L 3 15 L 3 18 C 3 19.644703 4.3552972 21 6 21 L 8 21 L 8 23 A 1 1 0 0 0 9 24 A 1 1 0 0 0 10 23 L 10 21 L 14 21 L 14 23 A 1 1 0 0 0 15 24 A 1 1 0 0 0 16 23 L 16 21 L 18 21 C 19.644703 21 21 19.644703 21 18 L 21 15 L 23 15 A 1 1 0 0 0 24 14 A 1 1 0 0 0 23 13 L 21 13 L 21 10 L 23 10 A 1 1 0 0 0 24 9 A 1 1 0 0 0 23 8 L 21 8 L 21 6 C 21 4.3552972 19.644703 3 18 3 L 16 3 L 16 1 A 1 1 0 0 0 15 0 A 1 1 0 0 0 14 1 L 14 3 L 10 3 L 10 1 A 1 1 0 0 0 9 0 z M 6 5 L 9 5 L 15 5 L 18 5 C 18.571297 5 19 5.4287028 19 6 L 19 9 L 19 14 L 19 18 C 19 18.571297 18.571297 19 18 19 L 15 19 L 9 19 L 6 19 C 5.4287028 19 5 18.571297 5 18 L 5 14 L 5 9 L 5 6 C 5 5.4287028 5.4287028 5 6 5 z M 9 8 A 1.0001 1.0001 0 0 0 8 9 L 8 15 A 1.0001 1.0001 0 0 0 9 16 L 15 16 A 1.0001 1.0001 0 0 0 16 15 L 16 9 A 1.0001 1.0001 0 0 0 15 8 L 9 8 z M 10 10 L 14 10 L 14 14 L 10 14 L 10 10 z " />
</svg>
