<?xml version="1.0" encoding="UTF-8" standalone="no"?>
<svg
   viewBox="0 0 24 24"
   fill="none"
   stroke="black"
   stroke-width="1.5"
   stroke-linecap="round"
   stroke-linejoin="round"
   version="1.1"
   id="svg1"
   xmlns="http://www.w3.org/2000/svg"
   xmlns:svg="http://www.w3.org/2000/svg">
  <defs
     id="defs1" />
  <path
     id="rect1"
     style="baseline-shift:baseline;display:inline;overflow:visible;vector-effect:none;fill:#000000;stroke:none;stroke-linecap:butt;stroke-linejoin:miter;enable-background:accumulate;stop-color:#000000;stop-opacity:1;opacity:1"
     d="M 4 2.25 C 2.4894729 2.25 1.25 3.4894729 1.25 5 L 1.25 15 C 1.25 16.510527 2.4894729 17.75 4 17.75 L 10.1875 17.75 L 7.46875 20.46875 A 0.75 0.75 0 0 0 7.46875 21.53125 A 0.75 0.75 0 0 0 8.53125 21.53125 L 12 18.0625 L 15.46875 21.53125 A 0.75 0.75 0 0 0 16.53125 21.53125 A 0.75 0.75 0 0 0 16.53125 20.46875 L 13.8125 17.75 L 20 17.75 C 21.510527 17.75 22.75 16.510527 22.75 15 L 22.75 5 C 22.75 3.4894729 21.510527 2.25 20 2.25 L 4 2.25 z M 4 3.75 L 20 3.75 C 20.705473 3.75 21.25 4.2945271 21.25 5 L 21.25 15 C 21.25 15.705473 20.705473 16.25 20 16.25 L 12.052734 16.25 L 11.947266 16.25 L 4 16.25 C 3.2945271 16.25 2.75 15.705473 2.75 15 L 2.75 5 C 2.75 4.2945271 3.2945271 3.75 4 3.75 z " />
</svg>
