<?xml version="1.0" encoding="UTF-8" standalone="no"?>
<svg
   viewBox="0 0 24 24"
   fill="none"
   stroke="black"
   stroke-width="1.5"
   stroke-linecap="round"
   stroke-linejoin="round"
   version="1.1"
   id="svg5"
   xmlns="http://www.w3.org/2000/svg"
   xmlns:svg="http://www.w3.org/2000/svg">
  <defs
     id="defs5" />
  <path
     id="rect1"
     style="baseline-shift:baseline;display:inline;overflow:visible;vector-effect:none;fill:#000000;stroke:none;stroke-linecap:butt;stroke-linejoin:miter;enable-background:accumulate;stop-color:#000000;stop-opacity:1;opacity:1"
     d="M 4 3.25 C 2.4894729 3.25 1.25 4.4894729 1.25 6 L 1.25 15 C 1.25 16.510527 2.4894729 17.75 4 17.75 L 5.25 17.75 L 5.25 21 A 0.75 0.75 0 0 0 6 21.75 A 0.75 0.75 0 0 0 6.75 21 L 6.75 17.75 L 9.25 17.75 L 9.25 21 A 0.75 0.75 0 0 0 10 21.75 A 0.75 0.75 0 0 0 10.75 21 L 10.75 17.75 L 13.25 17.75 L 13.25 21 A 0.75 0.75 0 0 0 14 21.75 A 0.75 0.75 0 0 0 14.75 21 L 14.75 17.75 L 17.25 17.75 L 17.25 21 A 0.75 0.75 0 0 0 18 21.75 A 0.75 0.75 0 0 0 18.75 21 L 18.75 17.75 L 20 17.75 C 21.510527 17.75 22.75 16.510527 22.75 15 L 22.75 6 C 22.75 4.4894729 21.510527 3.25 20 3.25 L 4 3.25 z M 4 4.75 L 20 4.75 C 20.705473 4.75 21.25 5.2945271 21.25 6 L 21.25 15 C 21.25 15.705473 20.705473 16.25 20 16.25 L 18 16.25 L 14 16.25 L 10 16.25 L 6 16.25 L 4 16.25 C 3.2945271 16.25 2.75 15.705473 2.75 15 L 2.75 6 C 2.75 5.2945271 3.2945271 4.75 4 4.75 z M 8 7.25 C 5.9378157 7.25 4.25 8.9378157 4.25 11 C 4.25 13.062184 5.9378157 14.75 8 14.75 C 10.062184 14.75 11.75 13.062184 11.75 11 C 11.75 8.9378157 10.062184 7.25 8 7.25 z M 16 7.25 C 13.937816 7.25 12.25 8.9378157 12.25 11 C 12.25 13.062184 13.937816 14.75 16 14.75 C 18.062184 14.75 19.75 13.062184 19.75 11 C 19.75 8.9378157 18.062184 7.25 16 7.25 z M 8 8.75 C 9.2515242 8.75 10.25 9.7484758 10.25 11 C 10.25 12.251524 9.2515242 13.25 8 13.25 C 6.7484758 13.25 5.75 12.251524 5.75 11 C 5.75 9.7484758 6.7484758 8.75 8 8.75 z M 16 8.75 C 17.251524 8.75 18.25 9.7484758 18.25 11 C 18.25 12.251524 17.251524 13.25 16 13.25 C 14.748476 13.25 13.75 12.251524 13.75 11 C 13.75 9.7484758 14.748476 8.75 16 8.75 z " />
</svg>
