<?xml version="1.0" encoding="UTF-8" standalone="no"?>
<!-- Uploaded to: SVG Repo, www.svgrepo.com, Generator: SVG Repo Mixer Tools -->

<svg
   fill="#000000"
   width="800px"
   height="800px"
   viewBox="0 0 32 32"
   version="1.1"
   id="svg3"
   xmlns="http://www.w3.org/2000/svg"
   xmlns:svg="http://www.w3.org/2000/svg">
  <defs
     id="defs3" />
  <path
     id="path1"
     style="fill:#000000;fill-opacity:1;stroke:none;stroke-opacity:1"
     d="M 1 0 A 1 1 0 0 0 0 1 L 0 31 A 1 1 0 0 0 1 32 L 31 32 A 1 1 0 0 0 32 31 L 32 1 A 1 1 0 0 0 31 0 L 1 0 z M 2 2 L 14.36 2 C 11.89 7.34 11 15.52 11 15.9 A 1 1 0 0 0 11.25 16.67 A 1 1 0 0 0 12 17 L 16.89 17 A 29.9 29.9 0 0 0 17.14 24 C 16.77 24 16.39 24.05 16 24.05 A 14.07 14.07 0 0 1 5.78 19.38 A 1 1 0 0 0 4.38 19.22 A 1 1 0 0 0 4.22 20.63 A 15.87 15.87 0 0 0 16 26 C 16.53 26 17.05 26 17.55 25.92 A 18.35 18.35 0 0 0 19.07 30 L 2 30 L 2 2 z M 16.59 2 L 30 2 L 30 30 L 21.39 30 A 15.57 15.57 0 0 1 19.53 25.58 A 15.91 15.91 0 0 0 27.78 20.63 A 1 1 0 1 0 26.22 19.38 A 14.13 14.13 0 0 1 19.13 23.62 A 27.91 27.91 0 0 1 19 16.15 A 1 1 0 0 0 18 15 L 13.13 15 C 13.47 12.41 14.49 5.88 16.59 2 z M 7.9317187 8.0023437 A 1 1 0 0 0 7 9 L 7 12 A 1 1 0 0 0 8 13 A 1 1 0 0 0 9 12 L 9 9 A 1 1 0 0 0 7.9317187 8.0023437 z M 23.931719 8.0023437 A 1 1 0 0 0 23 9 L 23 12 A 1 1 0 0 0 24 13 A 1 1 0 0 0 25 12 L 25 9 A 1 1 0 0 0 23.931719 8.0023437 z " />
</svg>
