<?xml version="1.0" encoding="UTF-8" standalone="no"?>
<!-- Uploaded to: SVG Repo, www.svgrepo.com, Generator: SVG Repo Mixer Tools -->

<svg
   width="800px"
   height="800px"
   viewBox="0 0 24 24"
   id="Layer_1"
   data-name="Layer 1"
   version="1.1"
   xmlns="http://www.w3.org/2000/svg"
   xmlns:svg="http://www.w3.org/2000/svg">
  <defs
     id="defs1">
    <style
       id="style1">.cls-1{fill:none;stroke:#020202;stroke-miterlimit:10;stroke-width:1.91px;}</style>
  </defs>
  <path
     id="path1"
     style="baseline-shift:baseline;display:inline;overflow:visible;vector-effect:none;fill:#000000;stroke-miterlimit:10;enable-background:accumulate;stop-color:#000000;stop-opacity:1;opacity:1;fill-opacity:1;stroke:none"
     d="M 0.54492188 4.3652344 L 0.54492188 10.792969 L 1.2168164 11.001973 C 1.2933104 11.025733 1.2480469 11.009152 1.2480469 11.044922 C 1.2480469 11.080722 1.2933104 11.064111 1.2168164 11.087871 L 0.54492188 11.296875 L 0.54492188 19.634766 L 23.455078 19.634766 L 23.455078 11.089863 L 22.546875 11.046855 C 22.546744 11.046849 22.546561 11.04683 22.546465 11.046797 C 22.546436 11.046783 22.546315 11.046696 22.546289 11.04668 L 22.54623 11.046621 L 22.546172 11.046563 L 22.546113 11.046504 L 22.546055 11.046445 C 22.545854 11.046097 22.545778 11.04555 22.545527 11.045215 L 22.545469 11.045156 L 22.54541 11.045098 C 22.545385 11.045079 22.545263 11.044997 22.545234 11.04498 C 22.545139 11.044937 22.545013 11.044882 22.544883 11.044863 C 22.544964 11.044857 22.54511 11.044824 22.545176 11.044805 C 22.545206 11.044792 22.545325 11.044702 22.545352 11.044688 L 22.54541 11.044688 L 22.545469 11.044629 C 22.545752 11.044309 22.545825 11.04367 22.546055 11.043281 L 22.546113 11.043223 L 22.546172 11.043164 L 22.54623 11.043105 C 22.546255 11.043086 22.546379 11.043005 22.546406 11.042988 C 22.546528 11.042929 22.546692 11.042884 22.546875 11.042871 L 23.455078 10.99998 L 23.455078 4.3652344 L 0.54492188 4.3652344 z M 2.4550781 6.2753906 L 21.544922 6.2753906 L 21.544922 9.5449219 C 21.027562 9.8823717 20.620961 10.362985 20.595703 11.013691 L 20.593711 11.054707 L 20.595703 11.095723 C 20.627173 11.739652 21.032115 12.215155 21.544922 12.548848 L 21.544922 17.724609 L 20.595703 17.724609 L 20.595703 15.820312 L 18.685547 15.820312 L 18.685547 17.724609 L 16.775391 17.724609 L 16.775391 15.820312 L 14.865234 15.820312 L 14.865234 17.724609 L 12.955078 17.724609 L 12.955078 15.820312 L 11.044922 15.820312 L 11.044922 17.724609 L 9.1347656 17.724609 L 9.1347656 15.820312 L 7.2246094 15.820312 L 7.2246094 17.724609 L 5.3144531 17.724609 L 5.3144531 15.820312 L 3.4042969 15.820312 L 3.4042969 17.724609 L 2.4550781 17.724609 L 2.4550781 12.416016 C 2.8630057 12.034683 3.1582031 11.560948 3.1582031 11.044922 C 3.1582031 10.528896 2.8630057 10.055161 2.4550781 9.6738281 L 2.4550781 6.2753906 z M 5.3144531 8.1855469 L 5.3144531 13.914082 L 11.044922 13.914082 L 14.865234 13.914082 L 18.685547 13.914082 L 18.685547 8.1855469 L 14.865234 8.1855469 L 11.044922 8.1855469 L 5.3144531 8.1855469 z M 7.2246094 10.095703 L 9.1347656 10.095703 L 9.1347656 12.005859 L 7.2246094 12.005859 L 7.2246094 10.095703 z M 11.044922 10.095703 L 12.955078 10.095703 L 12.955078 12.005859 L 11.044922 12.005859 L 11.044922 10.095703 z M 14.865234 10.095703 L 16.775391 10.095703 L 16.775391 12.005859 L 14.865234 12.005859 L 14.865234 10.095703 z " />
</svg>
