<?xml version="1.0" encoding="UTF-8" standalone="no"?>
<!-- Uploaded to: SVG Repo, www.svgrepo.com, Generator: SVG Repo Mixer Tools -->

<svg
   width="800px"
   height="800px"
   viewBox="0 0 24 24"
   id="Layer_1"
   data-name="Layer 1"
   version="1.1"
   xmlns="http://www.w3.org/2000/svg"
   xmlns:svg="http://www.w3.org/2000/svg">
  <defs
     id="defs1">
    <style
       id="style1">.cls-1{fill:none;stroke:#020202;stroke-miterlimit:10;stroke-width:1.91px;}.cls-2{fill:#020202;}</style>
  </defs>
  <path
     id="rect1"
     style="baseline-shift:baseline;display:inline;overflow:visible;vector-effect:none;fill:#000000;stroke-miterlimit:10;enable-background:accumulate;stop-color:#000000;stop-opacity:1;opacity:1;fill-opacity:1;stroke:none"
     d="M 6.2695312 0.54492188 C 4.6985471 0.54492188 3.4042969 1.839172 3.4042969 3.4101562 L 3.4042969 18.679688 L 3.4042969 20.589844 C 3.4042969 22.160535 4.6988401 23.455078 6.2695312 23.455078 L 17.720684 23.455078 C 19.291375 23.455078 20.585918 22.160535 20.585918 20.589844 L 20.585918 18.679688 L 20.595703 18.679688 L 20.595703 3.4101562 C 20.595703 1.839172 19.301453 0.54492189 17.730469 0.54492188 L 6.2695312 0.54492188 z M 6.2695312 2.4550781 L 17.730469 2.4550781 C 18.269212 2.4550781 18.685547 2.8714126 18.685547 3.4101562 L 18.685547 15.983906 C 18.383453 15.874309 18.058443 15.814453 17.720684 15.814453 L 6.2695312 15.814453 C 5.9354081 15.814453 5.613781 15.873034 5.3144531 15.980391 L 5.3144531 3.4101562 C 5.3144531 2.8714126 5.7307878 2.4550781 6.2695312 2.4550781 z M 6.2695312 17.724609 L 17.720684 17.724609 C 18.266273 17.724609 18.675762 18.1341 18.675762 18.679688 L 18.675762 20.589844 C 18.675762 21.135433 18.266273 21.544922 17.720684 21.544922 L 6.2695312 21.544922 C 5.7239425 21.544922 5.3144531 21.135433 5.3144531 20.589844 L 5.3144531 18.679688 C 5.3144531 18.1341 5.7239425 17.724609 6.2695312 17.724609 z M 13.910156 18.685547 L 13.910156 20.595703 L 17.730469 20.595703 L 17.730469 18.685547 L 13.910156 18.685547 z M 7.23 18.69 A 0.94999999 0.94999999 0 0 0 6.2800195 19.63998 A 0.94999999 0.94999999 0 0 0 7.23 20.59002 A 0.94999999 0.94999999 0 0 0 8.1799805 19.63998 A 0.94999999 0.94999999 0 0 0 7.23 18.69 z " />
</svg>
